<svg xmlns="http://www.w3.org/2000/svg" version="1.1" xmlns:xlink="http://www.w3.org/1999/xlink" xmlns:svgjs="http://svgjs.dev/svgjs" width="2000" height="2250" viewBox="0 0 2000 2250"><g transform="matrix(1,0,0,1,0.00014687500004129106,0)"><svg viewBox="0 0 320 360" data-background-color="#000000" preserveAspectRatio="xMidYMid meet" height="2250" width="2000" xmlns="http://www.w3.org/2000/svg" xmlns:xlink="http://www.w3.org/1999/xlink"><g id="tight-bounds" transform="matrix(1,0,0,1,0.000023499999997511622,0)"><svg viewBox="0 0 320 360" height="360" width="320"><g><svg></svg></g><g><svg viewBox="0 0 320 360" height="360" width="320"><g><path transform="translate(-74.99272,-51.79039) scale(4.65793,4.65793)" d="M20.6 59.9l0.8 1-0.4-1.3c-0.1-0.6-0.8 0.1-0.4 0.3M21.5 59.3c0.3 0.5 0.6 1 0.6 1.5 0 0.7 0.6 1 1.1 1.2-0.7-0.8-1.1-3-1.7-2.7M59.9 16.9c1.7 0 3.3-0.2 5.1 0.2 4.4 1.1 8.1 3.3 10.6 6.4l7 11.2c0.3 2.8 0.9 5.9 0.8 9.3 0.7 0 0.6-1 1.4-1.2-0.8 2-1.2 4.5-1.4 7.4-0.5-1.6 0-4 0.1-5.3-0.7 1.1-1.1 0.3-1.1-0.2 0.1-0.8-0.3-0.7-0.6-1-1.1-1-1.8-2.1-2.6-3.8 0.5-1.3 0.6-3.2-1-4.2-0.5-0.3-1.1-0.8-1.4-1.6-0.4-1.1-1.1-2.4-0.9-4.1 0.1-0.5-1.5 1.1-2.4 0.4-3.9-2.7-7.8-5.8-12.5-8.4-2.5 0-4.3-0.9-5.2-2-0.8-1-0.2-2.3 1-2.4 0.7 0 1.5-0.2 2.1 0.2 0.1-0.4 0.5-0.9 1-0.9M50 14.6l0.2 0.1c1 0.2 1.5 1.6 2.6 1.1 0 0.7 0.1 1.4-0.1 1.9-0.3 0.8-1.2 0.8-1.9 0.8-6.7-0.4-10.6 2.4-14.7 4.8-1.1 0.7-2.3 1.2-3.2 2.1-4.3 4-9 7.7-10.1 15.1l-0.9 8.2c-0.1 0.9-1.1 1.8-0.9 2.9l0.7 4.9c-0.7-0.7-1.1 0.2-0.9 0.6 0.1 0.3 0.5 1.3 1.1 0.4 0.8 1.5 1.6 4.4 2.7 5.7 3.4 4 7.8 7.6 11.4 11.2 0.9-0.2 1.6-0.2 1.8-0.8 0.3 0.6-0.3 1.2-0.8 1.3 1.6 1 3.4 1.9 5.8 2.1 3.1 0.2 6 0.7 8.7 1.4 1.4-0.4 2.8-0.6 4.3-0.7 0.5 0 0.8-0.8 1.4-1l0.1-1c0.6 0.9 0.5-0.3 0.1-0.9 0.7 0.6 0.9 1.1 1.2 1.5 0-0.3 0.8-1.4 0.8-0.1l0.2-1.3c0.3-0.2 0.4 1.1 0.7 0.2 0.3-0.9 0.9-0.2 1.5-0.5-0.2 0.4-0.1 1.2 0.6 0.7l0.8-0.7c0.5 1.2 1.3 0.7 1.7 0.5 4.4-2.8 8.8-6.1 13-9.4l-0.1 1.3 0.5-1.6c0.5 0.5 0.9 0.1 1.1-0.2 0.6-1 1.4-2 2.7-2.9-1.6 4.3-3.5 7.7-5.9 10.5l-1 1.2c0 0.7-0.2 1.6-1 1.7-0.4 0.1-1.2-0.2-1.8 0.4-0.3 0.4 0.7 1.2-0.1 0.6-0.7-0.5-1.4 0-2.2 0.2-0.6 0.2 0.4 0.8 0.6 1.2 0.2 0.4 0.4 0.8 0.3 1.3l-1.1-1.2c-1.3 0.7-2.1 2-3.2 3-0.5 0.4-0.3 1.1-0.3 1.7-0.7 0-1.5-0.2-1.9 0.2-0.3 0.4-0.2 1-0.2 1.6-1-0.1-1.1-1.6-2-1.3-0.9 0.2-1.9 0.3-2.7 0.8 0.6 1.2-1 0.5-0.8 0.7-1.5-0.9-2.8-1.6-4.4-1-3.4-1.1-7.6-0.6-10.7-0.2 0-0.5 0.1-1-0.1-1.1-0.2 0.5-0.8 0.3-0.7 0.3-1.9-1.3-3.8-2.1-5.8-3.2-1.8 0.2-3.5-0.7-4-1.2-1.4-1.3-3-0.6-4.3-0.9-2.8-0.7-3.8-3.6-4.1-5.6-0.2-1-1-1.4-1.3-1.3-1.3-4.2-3.3-8-4.9-11.9-0.4-1-0.3-2-0.3-3.1 0.5 0.2 1 0.1 0.9-0.6-0.5-3.3-1.7-5.8-3-8.2 0.7-3.4 0.8-7.4 2.4-10.4 1.4-2.7 4-4.1 5.8-6.4 0.6-0.8 0.6-1.9 1.2-2.6 2-2 4-4.1 6.2-5.9 1-0.8 2.2 0 3.7-0.3 0.5-1.8 2.5-3.4 4.4-2.9 0.8 0.2 2.4-1.9 2.9-2.1 0.8-0.3 0.4 0.8 0.4 1.5 1.9-1.5 4.5-2.3 6.9-3.2" fill="#ff908b" fill-rule="nonzero" stroke="none" stroke-width="1" stroke-linecap="butt" stroke-linejoin="miter" stroke-miterlimit="10" stroke-dasharray="" stroke-dashoffset="0" font-family="none" font-weight="none" font-size="none" text-anchor="none" style="mix-blend-mode: normal" data-fill-palette-color="tertiary"></path></g><g transform="matrix(1,0,0,1,64,114.90516921069127)"><svg viewBox="0 0 192 130.18966157861746" height="130.18966157861746" width="192"><g><svg viewBox="0 0 192 130.18966157861746" height="130.18966157861746" width="192"><g><svg viewBox="0 0 192 130.18966157861746" height="130.18966157861746" width="192"><g transform="matrix(1,0,0,1,0,68.4788548815094)"><svg viewBox="0 0 192 61.71080669710806" height="61.71080669710806" width="192"><g id="textblocktransform"><svg viewBox="0 0 192 61.71080669710806" height="61.71080669710806" width="192" id="textblock"><g><svg viewBox="0 0 192 61.71080669710806" height="61.71080669710806" width="192"><g transform="matrix(1,0,0,1,0,0)"><svg width="192" viewBox="0.98 -30.37 96.22999999999999 30.93" height="61.71080669710806" data-palette-color="#ff908b"><path d="M14.45 0L14.7-2.12 9.01-2.95 9.01-12.3Q9.25-14.04 9.97-15.23 10.69-16.43 11.57-17.03 12.45-17.63 13.18-17.63L13.18-17.63Q13.89-17.63 14.67-17.37 15.45-17.11 16.16-16.67L16.16-16.67Q17.55-17.85 17.55-19.38L17.55-19.38Q17.55-20.48 16.8-21.3 16.04-22.12 14.84-22.12L14.84-22.12Q13.75-22.12 12.62-21.37 11.5-20.63 10.5-19.14 9.5-17.65 8.86-15.53L8.86-15.53 8.4-15.53 8.89-21.14 8.33-21.73 1.32-20.83 0.98-18.97 4.96-17.77 4.96-2.78 1.22-1.81 0.98 0 14.45 0ZM21.77-17.77L21.77-6.52Q21.77-2.78 23.23-1.11 24.68 0.56 27.22 0.56L27.22 0.56Q31.61 0.56 34.2-3.2L34.2-3.2 34.52-3.2 34.52-2.98Q34.52-1.39 35.43-0.42 36.35 0.56 38.11 0.56L38.11 0.56Q39.18 0.56 39.91 0.46 40.65 0.37 41.79 0.1L41.79 0.1 42.01-1.93 40.89-2.17Q39.89-2.39 39.38-2.64 38.86-2.88 38.56-3.48 38.25-4.08 38.25-5.25L38.25-5.25 38.25-20.97 37.74-21.56 30.56-20.9 30.32-18.65 34.2-17.63 34.2-4.66Q33.32-3.76 32.26-3.27 31.2-2.78 29.66-2.78L29.66-2.78Q25.9-2.78 25.9-7.74L25.9-7.74 25.9-20.97 25.29-21.56 18.75-21.04 18.41-19.12 21.77-17.77ZM54.63 0L54.98-1.93 51.34-2.78 51.34-16.48Q52.24-17.48 53.51-18.03 54.78-18.58 56.15-18.58L56.15-18.58Q58.08-18.58 59.24-17.47 60.4-16.36 60.4-14.09L60.4-14.09 60.4-2.78 57.03-1.78 56.78 0 67.74 0 67.99-1.93 64.47-2.78 64.47-15.04Q64.47-18.33 62.96-20.14 61.45-21.95 58.59-21.95L58.59-21.95Q56.44-21.95 54.54-20.85 52.63-19.75 51.24-18.09L51.24-18.09 51-18.09 51.41-21.22 51-21.68 43.72-20.73 43.48-18.87 47.24-17.6 47.24-2.78 43.55-1.78 43.31 0 54.63 0ZM68.25 0L79 0 79.36-2.03 75.31-2.86 82.44-12.92 88.84-2.95 84.93-1.81 84.61 0 96.89 0 97.21-1.95 93.91-2.78 85.59-16.04 93.84-27.59 96.94-28.52 97.14-30.37 86.52-30.37 86.2-28.47 90.35-27.49 83.73-18.31 77.7-27.37 81.54-28.47 81.78-30.37 69.26-30.37 68.96-28.47 72.31-27.42 80.58-15.01 71.65-2.95 68.55-1.86 68.25 0Z" opacity="1" transform="matrix(1,0,0,1,0,0)" fill="#ff908b" class="wordmark-text-0" data-fill-palette-color="primary" id="text-0"></path></svg></g></svg></g></svg></g></svg></g><g transform="matrix(1,0,0,1,36.672,0)"><svg viewBox="0 0 118.656 59.47376712504061" height="59.47376712504061" width="118.656"><g><svg xmlns="http://www.w3.org/2000/svg" xmlns:xlink="http://www.w3.org/1999/xlink" version="1.1" x="0" y="0" viewBox="1.5380187873176299 31.000341997054807 97.46225348974461 48.85085766864505" enable-background="new 0 0 100 100" xml:space="preserve" height="59.47376712504061" width="118.656" class="icon-icon-0" data-fill-palette-color="accent" id="icon-0"><g fill="#8d021f" data-fill-palette-color="accent"><path fill="#8d021f" d="M98.921 67.858c-0.22-2.898-4.568-3.865-4.568-3.865s-2.504-0.835-4.479-1.405c-4.217-1.317-3.909-1.229-4.919-2.196-1.405-1.493-1.889-0.746-2.416-0.482-0.571 0.264-0.922 0.132-1.668-0.045-1.303-0.431-2.618-0.961-3.912-1.536-0.179 0.087-0.604 0.292-0.877 0.395-0.264 0.439-1.493 0.571-1.757 0.264-0.308-0.614 0.526-1.186 0.526-1.186 0.259-0.094 0.518-0.112 0.761-0.092-1.51-0.719-2.964-1.484-4.308-2.239 0.025 0.03 0.056 0.057 0.078 0.091-0.396 0.22-1.756 0.088-2.108 0.615-0.352 0.22-1.537-0.66-1.011-1.143l1.845-0.176c0 0 0.081 0.014 0.2 0.045-1.897-1.1-3.502-2.123-4.604-2.854-0.32 0.035-1.097 0.331-1.875 0.526-1.449 0.264-0.79-1.055-0.79-1.055l1.355-0.358c-0.185-0.128-0.302-0.212-0.302-0.212l-3.777-4.832c0 0-1.226-2.195-2.581-4.627-0.291 0.216-1.785 1.781-2.338 2.08-0.614 0.395-0.703 0.263-0.966-0.264-0.483-0.746 0.308-0.878 0.308-0.878 1.305-0.906 2.093-1.833 2.33-2.132-1.424-2.551-2.798-5.017-2.901-5.203-0.264-0.264-1.317-2.723-1.626-3.645-0.263-0.746-0.614-0.395-1.142-0.132-2.107 1.054-4.26 3.513-4.26 3.513s-3.294-0.307-5.402-0.571c-5.62-0.263-6.456 1.186-7.774 2.284-1.335 1.687-3.256 3.117-3.973 3.623-0.399-0.958-0.704-1.712-0.704-1.712s-0.824-3.063-4.315-3.36c-0.197-0.725-0.297-1.614-2.504-1.647-1.186 0.099-2.8 0.527-3.688 0.824-0.429 0.197-1.713 0.461-2.932 1.515-1.153-0.264-3.92-0.956-5.304-0.856-0.659 0.165-1.252 0.362-2.569 0.198-0.725-0.033-1.987-0.274-4.008 2.646 0 0-0.923 1.888-0.966 3.381 0.132 1.054 0.79 3.47 0.352 4.304-0.264 1.054-0.79 5.535-0.132 6.412 0.176 1.099 0.438 1.757-0.44 4.305-0.481 1.449-1.492 3.032-1.185 6.853 0.132 1.272 0.264 4.917 0.922 6.191 0.396 1.011 0.879 2.283 2.548 3.426 0.966 0.395 3.777 1.449 3.777 1.449s1.58 0.527 4.304 0.396c1.845 0.087 5.314 0.351 5.314 0.351s2.723-0.088 4.129 0.835c1.932 0.834 5.577 2.459 5.577 2.459s1.317 0.967 5.445 1.23c1.67 0.043 12.519 0.482 12.519 0.482s7.774 0.088 11.243-0.659c1.273-0.176 6.016-0.614 5.973-3.513 0 0 0.335-1.331-0.14-2.837 3.491-0.044 5.045 0.533 6.069 0.686 1.89 0.79 6.018 1.01 6.852 0.922 2.504 0.353 5.798 0 6.896-0.132 1.976-0.263 3.205-0.352 5.094-0.658 3.777-0.088 7.598-1.056 8.739-1.45C99.315 70.976 99.053 69.22 98.921 67.858zM59.041 47.743l1.537 0.088c0 0 1.537 1.23 1.274 1.318-0.176-0.352-1.538-0.264-2.24-0.352-0.746 0-1.055-0.176-1.055-0.659C58.558 47.655 59.041 47.743 59.041 47.743zM24.301 75.896c-0.835-0.353-3.515-2.064-8.653-1.977 0 0-7.949-7.949-8.564-11.464l-0.965-2.152c0 0-0.353-0.615 0-2.021 0.219-1.581 0.481-3.602 0.438-3.908 0.264-0.923 0.747-2.196 0.747-2.196s0.57-1.537 2.767-0.175c1.845 1.009 3.689 1.976 3.689 1.976s1.272 0.265 3.732 2.943c1.758 1.624 8.652 8.915 10.014 10.892 1.362 1.977 2.547 2.68 1.977 6.896-0.088 0.791-0.922 2.329 0.791 3.689C29.219 78.179 25.003 76.248 24.301 75.896zM36.334 62.368c0.527-1.087 1.087-1.614 0.922-2.174-0.658-0.165-2.141-0.791-4.743-0.396-0.56 0.065-1.351-0.758-0.164-1.186 0.593-0.132 1.383-0.264 1.383-0.264l-1.026-1.004 0.73-1.138c0 0-1.466-0.488-2.694-0.783l-0.007-0.007c0 0-0.856-0.461-2.734 0.065-0.626 0.033-1.515-1.054-0.264-1.416 0.494-0.132 1.351-0.132 1.351-0.132l-0.864-0.947 1.029-1.326c0 0-1.153-0.592-2.866-0.691l0.023 0.031-0.089-0.097c0 0-1.746-0.263-2.998 0-0.593-0.033-1.119-0.955-0.23-1.317 0.594-0.066 2.339-0.198 2.339-0.198l-1.943-2.701-0.494-0.56c-0.033-0.56 0.198-1.021-1.186-1.219-0.626 0-1.977-0.263-3.03 0.758-0.23 0.362-1.351 0.23-0.923-1.021 0 0 2.306-1.878 4.776-0.988 0.823 0.889 0.823 1.713 0.823 2.108 0.033 0.396 0.033 0.593 0.033 0.593l2.866 0.066 2.997-2.24c0 0 0.297-0.527-0.264-0.56-0.264-0.428-0.889-1.35-0.889-1.35l2.009-0.659c0 0 1.516-0.889 1.845 0.033s0.461 1.285-0.329 1.911c-0.198-0.231-0.033-1.285-1.614-0.461-0.396 0.264-0.923 0.33-0.297 0.89 0.626 0.56 0.659 1.416 0.297 1.647-0.329 0.23-1.614 1.285-1.614 1.285s1.878-0.297 2.636 0.461c0.461 0.494 0.658 1.153 0.625 1.68 0.231 0.131 0.066 0.329 0.066 0.329s0.823-0.692 1.054-0.889c0.264-0.264 0.494-0.758 0.923 0.395 0.329 0.56 0.164 0.593-0.264 0.956-0.197 0.23-0.494 0.494-0.494 0.494l-0.264 0.231-3.459 3.294c0 0 3.262 0.395 4.579 1.515 0.659-1.055 1.186-2.174 1.186-2.174s0.23-0.561 0.823 0.132c0.396 0.527 0.396 0.625-0.065 1.317-0.428 0.593-0.56 1.054-0.56 1.054l-0.165 0.462c0 0 2.042 0.362 2.339 1.943-0.165 0.329-0.626-0.297-0.89-0.429s-1.351-1.152-1.68-0.955c-0.132 0.297-0.923 1.614-0.923 1.614s3.195 0.296 3.723 0.889c0.329-0.823 0.691-1.745 0.691-1.745s0.362-0.593 0.791-0.099c0.461 0.362 0.823 0.625 0.329 1.219-0.23 0.461-0.56 1.251-0.56 1.251s1.877 1.285 1.977 1.318c0.099 0.032 0.395 0.428-0.297 0.362-0.691-0.297-2.075-0.856-2.075-0.856l-0.396 1.383c0 0 0.955-0.461 2.536 0.198 1.088 0.362 1.647 0.428 1.647 0.428s0.296-0.362 0.494-1.054c0.461 0.428 0.543 0.593 1.12 0.988-0.132 0.362-0.198 0.56-0.198 0.56s-0.642 1.285-0.864 1.498l-0.98-0.411-2.042-1.152c0 0-1.054-0.462-2.569 0.362C36.795 63.686 35.807 63.455 36.334 62.368zM41.308 65.893c0.066-0.362 0.033-0.659 1.153-0.626s1.482-0.132 1.482-0.132l1.877-0.065c0 0 0.594 0.362 0.659 1.054-0.362 0.099-3.854 0.264-3.854 0.264S41.275 66.749 41.308 65.893zM72.238 73.567c-0.77-0.178-6.532-1.573-9.367-1.521-0.472-0.916-1.295-1.824-2.733-2.476 0 0-3.029-1.669-5.84-2.635-2.108-0.791-5.184-2.768-7.644-3.953 0 0-0.405-0.384-2.118-0.581-0.5-0.38-2.64-2.339-4.243-3.819l-0.006-0.101c0 0-0.594-3.294-0.066-4.414 0.527-1.45 0.856-2.438 3.689-1.977 2.306 0.526 5.468 1.12 5.468 1.12s4.875 0.856 8.301 3.821c3.162 2.239 12.057 8.959 12.057 8.959S73.227 68.033 72.238 73.567zM81.132 61.445c-0.702-0.087-0.879-0.132-1.186-0.526-0.219-0.483 0.57-0.527 0.57-0.527s1.143-0.044 2.021-0.176c1.055-0.089 1.449 0.967 1.449 0.967S81.923 61.401 81.132 61.445z" data-fill-palette-color="accent"></path><path fill="#8d021f" d="M30.306 50.708c0 0 0.89-0.988 1.285-1.417-0.396-1.219-4.81-1.021-4.81-1.021l-0.922 0.89c0 0 0 0-0.297 0.264C26.946 49.291 30.306 50.708 30.306 50.708z" data-fill-palette-color="accent"></path></g></svg></g></svg></g><g></g></svg></g></svg></g></svg></g></svg></g><defs></defs></svg><rect width="320" height="360" fill="none" stroke="none" visibility="hidden"></rect></g></svg></g></svg>